<svg xmlns="http://www.w3.org/2000/svg" version="1" width="600" height="600"><g clip-rule="evenodd" fill-rule="evenodd"><path d="M404 562c1 0 0-3-1-2l1 2zM406 486v0z"/><path d="M447 360c-2 1-5 0-4 4-4 3 0 6 4 6 2-2 2-5 2-9l-2-1z" fill="#97bf0d"/><path d="M519 108l-1-2 1 2zM518 104h1l-1-2v2z"/><path d="M262 446c-1 4 4 7 6 8l1 2 12 11c5 3 8 9 12 12l1 2 4 3c3 6 8 9 11 14 1 1 3 1 3 3 4 2 6 8 11 9l7 7c3 4 7 9 13 10 2 3 4 8 7 10l1 2c3 3 8 5 10 10 2 0 2 3 4 4 1 1 3 1 3 3 2 0 2 2 3 2 1 1 3 3 3 5 4 2 7 7 11 8l1 3h3l1 3 2 1v2l2 1 3 5 3 1 2 3 5 1 7-9 1-4-1-5v-5l3-6c-1-1 0-3 1-4v-4l2-1v-2l2-4c0-2-1-4 1-6-2-8 2-12 2-18l3-6c-1-4 2-8 3-12v-2c1-1 3-3 2-6l5-13c2-5 5-10 4-17l3-9 2-7 1-2v-4l3-7c0-5 2-9 3-13-1-2-2-3-1-5-4-4-10 3-15 3-9 5-24 8-34 13-4 0-8 2-13 4-2-1-6 0-8 1-5-1-11 2-15 1-7 4-15 4-20 5h-15l-5 1h-9l-10 1-8-1h-15l-7-1h-2l-2-1c-5 2-8 0-13 0zm157 13l1 1c-1 1-1 2-3 2 1-2 2-1 2-3zm-17 115c-1-2-1-3 1-3v-1h-2l-1-7c2-1 2-2 2-4l-2-1c1 0 1 0 0 0h2v-4l2-1c0 2 2 2 3 3l-1 1c3 0 2 4 1 5 2 1 0 4 1 6-3 1-1 5-4 6l-3 3c-1-2 0-2 1-3zm8-21l1-1c1 1-1 2-1 1zm-1-14l2-4 2 1v-3h-3c-1-2 3-2 3-1v6l-4 1zm5-14l1-1 1 1h-2zm-18-18c-1-1-2-3-1-4h2l1 4h-2zm-18-5v-5c2 0 3 3 3 6l-3-1zm47-11c1 0 1-2 2-1 0 1-1 4-2 1zm-28 4l1 2-2 1 1-3zm23-10c1-4 5 0 3 2l-3-2zm-13 3h-2c0-2-2-5 0-7h2v7zm12-15l2 6-1 2c-2-2-2-6-1-8zm-57 13h2c-1 1 1 2-1 3 0-1-2-2-1-3zm56-16c1-1 1-1 1 1l-1-1zm-6-10l1 2-1-2zm2-5c0 1-1 2-2 1-1-3 2-2 3-4l-1-2 2-3 4-3 1 3c-4 1-1 4-2 7l-5 1zm24-10l-1-5-1 1c-1-1-2-2-1-3h5l1 5c-1 1-2 4-3 2zm-10-6v-1l2 2-2-1z" fill="#e5352c"/><path d="M470 365l2 1c-1 3 1 8 4 8 5 0 7-2 11-3l3-4 4-1 2-2 4-4c3 1 5-3 8-4h2c7-1 11-6 13-10l11-10h4c6-3 11-5 15-9l9-2 3-3c3-1 7-1 9-4 1-2 0-4 2-4 3-1 7-1 9-4 1-5-2-12 0-17-3-7-1-14-3-21l1-6c-2-3-1-7-1-10l-1-9c-1-3 1-5-1-8v-6l1-2-1-7 1-4-1-2v-7l-1-2v-3l-1-8-1-13c0-3-4-3-6-4-7 0-9 4-14 6-2 4-10 6-12 10l-12 7-5 4v1c-3 3-7 4-10 6l-2 3-5 3v1c-2 2-6 3-7 5-6 2-11 6-15 9-8 3-13 9-21 11-7 6-18 8-25 13-3 0-5 4-8 4h-3c-4 1-6 4-9 5h-3l-9 5c-1-1-2 1-4 1l-6 2-1 1-9 1c-5 2-10 4-16 4-8 3-17 3-25 6h-11l-2 1-5 1c-4 1-6 5-10 6h-7l-12 6c-2 0-6 1-7 3l2 3-2 2 1 3c-3 0-2-3-3-5-3-4-13-4-15 1l-2 5c-3 1-5-1-7-1l-6 1h-3l-5-1c-2 0-4-2-7 0-2 1-3 3-5 3l-6 3c-2 0-4-2-6-1-2 0-2-2-5-2-2-3-6-4-9-3l-2-1c-6-1-13 1-20 1-3 0-5-1-6 2-2-2-5-1-7-1l-3-1-3 1-5-1-2 1-3-1-2 1h-13l-9 1h-9c-4-3-6-7-11-7l-4 1h-7c-3-3-8-2-12-3-7 1-11-1-16-1l-3-1c-1 2-4 3-4 6l-3-2 2-1c-1-5-5-5-8-7-2 1-3 3-5 3-3-1-3-4-6-5h-6c-3-1-8-4-11-1-1 3 2 4 1 7 2 2 2 5 3 7l4 10c2 5 3 11 6 15l2 9 2 3c2 4 2 8 5 11 2 4 2 8 3 13l4 10v2c0 3 3 6 2 9l3 6c1 2 4 2 6 4l6 1 3 1 6 1c6-1 11 2 15 4 4 0 6 2 9 3 6 0 11 3 17 4h5l3 1 11 1c10-2 18 1 27 0 3 1 8 2 11 1h9c4 1 6 3 10 1 3 0 6 2 9 1l5-1c2 0 5-2 7-1h19l1-1h11l3 1 4-1h9l7-1 4-2c3 0 6-1 8-4 3-1 5 0 8 1l2 1c2 0 3-1 4 1l7-1c4-5 10-3 16-3 4-1 6-2 10-1l8-4 3 1c3 0 6-2 8-4l6 1 2-1 9-1 12-4c2 0 4 1 6-1h5l5-1 4-1 3 1 4-2 2-1 3-1 6-2 7-3h3l2-1h3l2-1 6-3 4-3 3-1 2-2c1-1 3-3 3-5l-1-4 3-3zm-76 20s2 0 3 2l-3 1v-1c0-4-4-2-6-4l6-2v4zm63-10v2-2zm-151 29l1-5 3 1c0 3 3 3 4 5h-3-1l1 2-1 1-4-4zm-17 3c2 0 1 2 0 2v-2zm49-9c1 0 0-2 2-3 2 1 0 5-2 3zm103-31l-2-1c-1-2-2-5 0-5v-1c2 1 3-2 5-2s3 2 5 1c0 2 1 4 3 5l1-3c3 0 3-3 4-5 2-2 5-4 8-4l-1-4c1-1 4-1 5-3 1 2 3 2 4 2l2 2-5 5v5c1 1 2 3 0 4v-2l-2-1c-2 1-2 3-4 3l-1 7h-6l-4 3s-2-1-2 1c-1-5-5-3-8-2l-2-5zm-71 17l2 1c1 1 0 3-1 4l-2-5h1zm-94 22v0zm128-28l1-3-2-2c2-1 2-3 4-3 0 2 2 2 1 4l-2 1c0 2 1 2 2 3 0 2-3 0-4 0zm-83 17l1-1v2l-1-1zm30-6l-1-2v-1h1l1 3h-1zm19-8v1l-1 1v-1l1-1zm117-28l4 1-1 2c-1-1-3-1-3-3zm-255 57v-2l1-1c1 1 0 3-1 3zm169-37l-2 1v-1h2zm-81 16l2-3 2 1-1 2h-3zm-12-2l2 3-3 1c-1-1 0-3 1-4zm-86 18v1-1zm210-46c-2 2-4 0-5 0l-5 4c0-2-1-4-3-5 2-3 8-2 6-7 1-2 3-1 5-2 4 1 0 5-1 6l3 2c-2 0 0 1 0 2zm-32 8v-5c2 0 4 1 4 3l-4 2zm40-11l-2-5h2c1 2 3 3 5 2 1-1 2-2 4-1l-1 1c-3 0-5 4-8 3zm-29 1c1 2 4 0 4 2-1 1-1 2-3 2l-1-4zm71-12v1l-1 1 1-2zm-209 42h2l1-2 1 1c-2 1-2 2-2 4 0-2-2-1-2-3zm119-23c-1-2 3-4 4-2-1 2-2 2-4 2zm58-14l1 1-2 1c-1-2 1-2 1-2zm7-2h1v1l-1-1zm-90 15c2 0 4 3 2 4-2-1 0-4-2-4zm93-20l1 2-1 1v-3zm-236 46c3 0 3 4 2 5-2-1-3-3-2-5zm174-34c2-2 1-3 1-5l-1-2 1-2 7 6-1 2-6 2-1-1zm25-5l1 1-1-1zm-191 40l-1 1 1-1zm225-50l2 2-2-2zm-170 36l3 1c-1 0-3 1-3-1zm120-26l2 1-2-1zm-123 21h3c0 2-1 1-2 2l-1-2zm-94 15c0-1-2-2-1-3h1l2 2c-1 0-1 2-2 1zm199-46h1v2h-1v-2zm53-10l-1-1h3l-1 1h-1zm5-5c1-3-2-3-1-6 3 1 3 5 3 7l-2-1zm-8-10l1 3c-4 3-4-7-1-3zm-213 45v3c-2 0-1-2 0-3zm319-71c0 3-2 5-5 4-2-1-2-3-4-3l2-4c4-1 6 0 8 1l-1 2zm-149 27v1l-1-1 2-1h2l1 1c1-1 2 1 2 2l-6-2zm15 0l1-1-1 1zm-155 31l1 1-1-1zm201-43l2-1-1 2-1-1zm3-3c2 0 4 0 5 2-1 2-3-1-5-2zm-119 22l1-1 4 3c-1 2-4 0-5-2zm96-20c-2 0-3-3-5-4l5-3c2 2 1 5 2 7h-2zm-117 20h2v1l-2 2v-3zm-31 8l1-1 1 2-2-1zm15-5l2-4v-6l2 1c0 2-1 5 1 6l-1 2c-1 0-2 1-1 2l-2 1-1-2zm100-21l2-2 2 2-4 1v-1zm-6 1v-1h3l-2 2-1-1zm55-13l5-1c1 3-3 2-5 1zm-136 26l2-1v5c-3 2-4-2-2-4zm94-19v2l-1 1c-1-1 0-3 1-3zm-9 3l-1 1 1-1zm132-29l-1 2h-1c-1-1 0-4 2-2zm-197 40l-2 1-1-5 2 1c-1 1 0 2 2 3l1-1h3c-1 1-1 3-3 3l-2-2zm-51 12c1 0 2-1 2 1l-2-1zm14-5l-1 1c0-1 0 0 0 0s-2 0-1-1h2zm128-30h3c1 3-3 3-3 0zm20-8l1 1-1 1v-2zm-148 32l1-1v1h-1zm-121 23l2-2c2 2-1 5-2 2zm234-51l1-1 1 1h-2zm-12 1l-1-2h3v1l-2 1zm-220 40l1-3h1l2 4c-1 2-3 1-4-1zm-23 7c-1-1 0-2 1-2l1 1-2 1zm409-92l2 2-1 1h-1v-3zm-41 5c3 0 5 3 7 4v1l-3 1c-1-1-4-3-4-6zm42-14h2l-1 3-1-3zm-34 2v2c-3-2-7-6-5-10l-2 1c-1-3 1-3 1-3 2 2 3 4 6 5v3l2 2 3-3 2 2-2 2c-2 1-3 0-5-1z" fill="#97bf0d"/><path d="M355 260c1-3 4-2 7-3l4-3 4-1 7-2c2-1 4-3 6-2l11-5c7 0 13-4 19-8v-7c2 1 1 3 2 4h3l2-3c2-1 3 0 4 1l11-2c2 1 4-2 6-2l4-1 6-5 8-2c4-2 6-5 9-8 5-1 7 0 11-2l3-2 2-1 7-4 6-3 6-7 3-13c1-5 0-11 4-15l2-10 3-5v-5l3-6 2-10 1-2 1-8 2-6v-10l2-5 3-5v-6l1-3 1-6c2-5 3-8 1-13-6 0-13 2-18 5h-3l-3 3h-5l-2 1c-4 2-8 0-10 3-4 0-8 1-11 3-5 0-9 2-13 3l-2 1c-4-1-11 0-15 3h-2c-2 1-4 1-4 3-3-1-5 0-9 1-6 1-13 2-17 6-5-2-9-1-13 2l-3 2c-3 1-6 0-9 2h-7l-3 2-5 1-6 2c-5 5-15 3-21 8l-9 3-7 1-15 4c-3 1-6 5-10 4l-7 2h-2c-4 1-7 6-11 6h-3l-1 1c-4 0-10 0-12 2-3 0-8 1-10 3l-12 3-3 2h-4l-2 1-3-1-5 4c-4-1-9 0-14 2l-5 1c-4-1-5 2-8 2h-3l-4 1h-5l-7 4c-2 0-6-1-7 1-4-1-8 2-11 2-2 2-5 1-7 2l-8 2-6 2c-5 0-11 0-14 4-5 0-12 0-15 4h-6l-3 3h-6l-1 2h-6l-4 2h-3l-14 2-1 1c-7 1-14 5-20 5-3 1-6 0-8 2-3 0-5 1-7 3-3 0-10 2-13 0h-5l-7 3-2 3 3 5 2 1c3 5 8 9 13 13h2l2 4c1 4 6 5 9 9l4 5 3 1 1 2c2-1 3 1 5 2v2c3 4 7 7 11 9 2 4 5 6 8 7 3 4 6 8 10 10l7 5c1 2 4 2 6 3l4 5 5 2 16-1 10-1 3 1c3 0 6-2 8 0h11l2-1h3l2-1h8l2-1 7 2 6-1 7-1h3l5-2c3 0 6 2 9 0 3 1 7-2 11-2l8 2c4-2 11-1 15-4 5 1 10-1 15-1l3 1 5-2h7l9-3c3 3 6 0 9 0l3 1c3 1 6 0 9-2l18-2 4-1c5-1 10-5 15-7l5-1c2-1 4-2 7-1zm-49 1h-3l-6-3v-2l8-2 3 4c-1 1 1 1 1 2l-3 1zm86-25v-1c2 0 3 1 2 2s-2 1-2-1zm-147 30c-1 2-4-1-2-2l2 2zm167-41l2-1-1 4-1-3zm-34 9v-2c0 1 0 0 0 0l3 1v1h-3zm29-8c0 1 2 1 1 2h-4l-1 1h-1c1-3 0-7-3-8 1-1 0-2-1-2 3-2 4-2 7-2 1 0 2 3 3 1l2 3c-3-1-5 3-3 5zm-114 22c2-2 5-6 5-10l2 2c-1 2 0 5 1 7l-7 5-1-4zm105-22l-1 3c-1 0-1-2-3-1v2l-3 1-3-3-2 1v-4h1c1 2 3 3 5 2l4-3 2 2zm37-9l5-1v4l-4 1-1-4zm-158 30c2 1 3 3 3 6-1 3-4 2-6 0l-2 2c-4 0-2-5-1-8 2 1 4-1 2-3h3l1 3zm-57 17c1-1 0-3 2-3l2 4-2 1-2-2zm91-19l1-3 3 2c-1 2-3 4-4 1zm135-28c-1-1 2-2 2 0l-1 1h-2l1-1zm-190 41c-1 0-2 1-2-1 1-1 2-3 4-3 1 2-2 2-2 4zm8-7l1-2 2 3c-2 0-1 1-1 2-1 1-1-2-2-3zm-46 12h-4 4zm-39 2h1l4 3-2 2-3-5zm-26 10c-4 1-1-5 1-2l-1 2zm-24 3c-1-1-3-3-2-5l3-2 3 3c-3 1-3 4-4 6v-2zm293-62c0-2-3-3-3-6-1-1-4-4-4-6 2 1 4 3 7 2v5l-1 1c0 1 1 2 2 1v5l-1-2zm-120 24l-2-1h3l2 3c-2 1-2 0-3-2zm56-14c1 1 0 3-1 4v-1c-1 1-2-2-1-3h1l1 1v-1zm-46 11l1-1 1 1-1 2-1-2zm118-24v-1c0-1 0-2 2-2l5 1-1 2c-2-2-4 0-6 0zm-267 53c3-1 5 1 4 3-3 3-4-1-4-3zm127-23l-1-1c1-2 1-4 3-5l-1 2v1h1l-1 3h-1zm122-30v1c2-1 4 3 0 3-1-1-2-3-1-4h1zm-133 28l3-1c3 4-3 4-3 1zm-50 8l3-2 1 3-2 1-2-2zm205-44l1-2 2 1h1c-2 0 1 3 0 3l-4-2zm-168 36l1 1-1-1zm-12 3v-4l3-1c-1 1-2 4-1 5h-1-1zm-99 21l1-1v1h-1zm289-66l2 1c0-1 1-3 2-2s2 5-1 5l-3-4zm-152 36v-2h1v2h-1zm-31 2c-1 1-3 0-3 2-1-2-2-4-1-5l4 2 1-1 3 1v4l-4-3zm148-29v1l-1-1h1c-1 0 0 0 0 0zm-135 26l1-2 2 1-2 2-1-1zm-140 26c1-3-4-7-1-9 1 0 2 3 4 2 1 3 1 6 3 7-1 3-4 1-6 0zm150-30c-2 1-4 1-5-1 2-2 5-2 7-1-1 1-1 3-2 2zm-116 22l-1 3h-2v-1l3-2zm201-45h1l1 2c-1 1-3-2-2-2zm-26 5l2-2 1 1c0 2-1 1-3 1zm109-26l-1 2 1-2zm-176 35c2 0 1 2 1 2l-1-2zm-107 25l-2-2c1 0 6-2 5 0-2-1-2 1-3 2zm311-69h5c-1 1-5 2-5 0zm-215 47c0-2 2-2 2-1l-2 1zm94-22l2-2 1 1 2-1 1 2c-2 0-5 2-6 0zm9-1v-2l2 2h-2zm-26 1l1 1 2-3c1 0 4 2 3 4l-2-1h-4v-1zm-183 41h-2 2zm210-46l1-1v2l-1-1zm-216 45h2-2zm325-74h1v2l-1-2zm3-1h2c1 2-2 2-2 0zm-256 54h2l-1 1-1-1zm38-11l1-1 1 2-2-1zm225-50l4-2h1v2h1c1 3-5 2-6 0zm-115 27l-2 1-1-2s1 0 0 0l3 1zM83 247l1 1-1-1zm278-61v-5c2 0 4 2 4 3l-2 1v1h-2zm119-27l1-2v-2l-1-2h3l-2 2 3 4v1c-2 1-4 0-4-1zm-254 54c0-1 2-1 2 1l-2-1zM94 241v-2c-2-2-5-1-6-3l1-1c2 2 5 4 9 5 0 1-2 2-4 1zm382-83c2-1 2 1 4 1l-3 2-1-3zm-225 49v0zm5-6c-1-2 0-3 1-4l4 2-2 3-3-1zm143-33l1-2c2 2 3 2 4 5-1 1-1-1-2-1-1 1-2-1-3-2zM85 236l-1 3c-1-1-1-2 1-3zm250-52c0-1 1-2 3-2l1 1c-1 0-3 4-4 1zm153-34l6-2-1 3c-2 0-5 2-5-1zm-180 38v-1l1 1h-1zm-85 13c1-1 0-2 2-2l2 5c-3 2-2-2-4-3zm105-22l-1 2c0-1-1-2 1-2zm99-22l-1 2c-2 0-1-4 1-2zm-185 39l1-1c0 2 0 0 1 1h-2zm154-35h2l-1 1h1c-1 1-1 0-2-1zm24-7h0zm4-2l1-1v2l-1-1zm-1 1h-1 1zm3-4l2-1v3l-2-2zm-22 5l-4-2h-2v-1l2 1c3-1 3-4 1-4v-2l4 2v2l-1 4zm80-18h1l-1 1v-1zm-302 44c1 1-1 1 1 2-2 1-3 2-3 4-2 0-3 1-2 3-3 3 2 5 2 8l-3 1-4 2v-4l-3-1c0-3-1-5-4-4l-1 1c-1-2-6-1-5 3l-3 1c0-4-5-5-7-3-1-1-5-2-4-5 1 0 3 2 5 1 3-1-1-7-4-7h-2c-1-2 1-4 3-4l4 6h1c0 4 4 3 6 4 1-1 3-2 2-4 1 1 1-1 2-1l-1 2 1 3h3c0-2 4-3 4-5h3l3-2v2c0-4 5-2 6-3zm215-30l1 2c-2 1-3-2-1-2zm-99 22v1h-1l1-1zm213-46v-4h1l1-2h2c0 3-2 3-1 6-1 2-2 1-3 0zm-219 45l1 1c-1 0-2 0-1-1zm27-8c2-1 2 0 3 2l-2 1-1-3zm-63 14v-4h2l-2 4zm48-10c-4-1-3-10 2-8 1 3 1 6-2 8zm-123 25c2-1 3-2 3-4l2 1c-1 1 2 1 1 2l-5 1h-1zm220-49l1 1c-1 1-2 0-1-1zm80-17l1-1 1 1h-2zm-64 12v1l-3-1-1 1-1-2h2l3 1zm-213 44v2l-5 1-2-2v-2l5 1h2zm217-49l-2-1 3-2c2 0 3 1 3 2 1 2-2 3-1 5h-1c-1-2-3-2-2-4zm95-17h2l-2 1v-1zm-262 53c1-1 2 2 0 2v-2zm-44 11c-2 0-2-3 0-4 0 1 2-1 3 1v1c-2-1-2 1-3 2zm-21 3l2-2c1 2-1 4-2 2zm240-54c-2 0-2-2-3-2l-2-1h2c1-3 4 0 6 0v5c-1 0 0 0 0 0-2 1-2-1-3-2zm-225 50h0zm82-20l1-1 1 4c-2-1-2-2-2-3zm43-7c-1 1-4 1-5-2 0-3 8-1 5 2zm-63 4l5 2c-1 3 2 4 2 6h-1c-1-4-7-4-6-8zm251-47l-1-6 2-1v-7c3 0 4 2 5 4l-2 4c1 4-1 6-3 8-1 0-3-1-4 1l3-3zm-297 61h1c1 2 0 2-1 2v-2zm-62 5c1 1 1 2 2 1l1 1 3-1 2 1c0 2 4 2 3 0l2-1-1 6-4-2c-3 3-4-4-6-2l-2-1-2 2c-1-2 0-3 1-4h-1v-1h1c-1 0 0 0 0 0v2h1v-1zm178-31v-3l6 4c-2 2-6 2-6-1zm-153 34v-1h1c1 1 0 1-1 1zm46-11v-1h1l3 2-4-1zm21-6l1 2c-1 0-3-2-1-2zm172-36h1v-1 2l-1-1zm-249 50l2-1v3l-2-2zm249-55c2 0 2 2 0 3v-3zm4-1c-1-1 0-1 1-1l-1 1zm-60 8l-1 2 1-2zm141-32h4v3h-1l-3-3zm13 0c0-2-1-2-2-2 0-2-1-2-2-3l3-2 2 3 3 3-4 1z" fill="#e5352c"/><path d="M173 130l2-2c3 1 6 1 8-1 4 0 7-1 9-3 3 1 5 0 5-2h4l1-3 2 2 6-1c3 0 8-1 10-3 6-1 10-4 17-3 4-3 10-1 14-4h5l2-1 1-1 11-3 15-5 9-2 5-2 3-3h4c4 0 6-2 8-3h9c1-3 5-2 8-3l1-1c4-2 8-2 10-4l8-1 13-5h4l9-2c3-3 8-1 10-4 4 0 7-3 10-4-1-2 1-2 1-3l2-8 1-9v-3l1-7c-1-3 1-5 1-9l-1-4 1-2v-2c0-2 1-3-1-5l-7-2-7-2a67 67 0 0 0-12-1l-3 1h-7l-11 3c-5 0-11-1-15 1-7 0-15 3-23 4h-5l-8 3c-4 1-9 0-13 2-11 2-25 5-35 10-2-1-5 0-6 2-2-1-5 0-6 1-4 1-10 2-13 5-4 0-7 1-10 4l-9 1-2 2c-2 1-5 1-7 3l-10 5c-3 1-6 2-7 4-3 0-4 3-6 4l-8 4-5 2c-2 1-3 3-5 3l-5 4-2 1c-4 0-6 3-9 4l-4 1-2 3-3 1-2 2c-4 2-8 3-10 7-5 2-7 6-11 8-3 0-4 3-7 4l-4 4-5 1-2 2-6 5-8 4-2 2-18 13v2l-4 2-5 3-4 3c-3 2-6 4-6 6 1 2-1 4 1 6s11-1 13-2c5 0 9-4 14-3 4-3 10-2 14-4 4 0 7-3 11-2l4-1 12-4 12-4 4-2 13-2 5-4 3 1c3 1 9-1 12-2l3-2h4c2 0 4-2 6 0zm51-22l1 3h-1v-3zm-14 0v-3c1 1 1-1 2-1 2 1 1 4-2 4zm-51 9l2-1v2l-2-1zm-2-7l-2 1-2 2c-2-1-3-5-3-8l3-1c2 1 3 5 5 4l1 3-2-1zm12-8h2l1 6-2 1c-2-2-1-5-1-7zm-5 3l-3 1-1-4 3 1 1 2zm45-10l-1 1 1-1zm7-30l1-1-1 1zm-1-2v1-1z" fill="#97bf0d"/></g></svg>