<?xml version="1.0" standalone="no"?>
<svg version="1.1" xmlns="http://www.w3.org/2000/svg" x="0px" y="0px" width="927px" height="178px" viewBox="0 0 927 178"
     enable-background="new 0 0 927 178" xml:space="preserve">
    <path xmlns="http://www.w3.org/2000/svg" fill="#141412" font-weight="bold"
          d="M88.09 129.04Q75.99 129.04 66.36 123.92Q56.74 118.81 51.24 109.68Q45.74 100.55 45.74 89L45.74 89Q45.74 77.45 51.24 68.32Q56.74 59.19 66.36 54.08Q75.99 48.96 88.09 48.96L88.09 48.96Q98.65 48.96 107.12 52.70Q115.59 56.44 121.20 63.48L121.20 63.48L107.34 76.02Q99.86 67 89.19 67L89.19 67Q82.92 67 78.03 69.75Q73.13 72.50 70.44 77.50Q67.74 82.51 67.74 89L67.74 89Q67.74 95.49 70.44 100.50Q73.13 105.50 78.03 108.25Q82.92 111 89.19 111L89.19 111Q99.86 111 107.34 101.98L107.34 101.98L121.20 114.52Q115.59 121.56 107.12 125.30Q98.65 129.04 88.09 129.04L88.09 129.04ZM152.44 110.67L192.70 110.67L192.70 127.50L130.88 127.50L130.88 50.50L191.27 50.50L191.27 67.33L152.44 67.33L152.44 80.31L186.65 80.31L186.65 96.59L152.44 96.59L152.44 110.67ZM260.24 50.50L281.80 50.50L248.80 127.50L227.35 127.50L194.46 50.50L218.00 50.50L238.90 100.66L260.24 50.50ZM286.31 127.50L286.31 50.50L308.09 50.50L308.09 127.50L286.31 127.50Z"/>
    <g><path fill="#323394" d="M334.931,73.371c-0.181-0.641-0.267-1.301-0.327-1.85l12.602,12.581 C340.397,81.64,336.158,81.975,334.931,73.371"/>
        <path fill="#c41333"
              d="M415.722,115.954c-8.831,2.554-17.685,4.158-26.022,4.703l31.227,31.223l11.095-41.367 C427.111,112.417,421.689,114.222,415.722,115.954"/>
        <path fill="#c41333"
              d="M443.51,64.399c-11.379,7.401-25.311,13.781-38.275,17.489c-17.806,5.161-35.959,6.776-49.823,4.384 l-21.157-21.185l117.507-31.565L443.51,64.399"/>
        <path fill="#323394"
              d="M460.756,86.589c-8.896,10.981-23.162,18.734-46.193,25.432c-23.495,6.697-46.936,6.516-59.736-0.58 c-4.496-2.516-7.312-5.601-8.392-9.293l-6.739-16.765c0.268,0.129,0.535,0.267,0.766,0.5c13.803,7.585,39.672,7.634,65.947,0.128 c21.021-6.073,43.057-18.351,54.348-30.131V86.589"/>
        <path fill="#323394"
              d="M420.924,37.621l-82.082,21.879c8.453-12.008,28.283-23.847,51.221-30.49 c6.447-1.871,20.849-4.191,30.861-3.807V37.621"/></g>
    <path xmlns="http://www.w3.org/2000/svg" fill="#141412" font-weight="bold"
          d="M510.09 127.50L510.09 67.77L486.44 67.77L486.44 50.50L555.41 50.50L555.41 67.77L531.87 67.77L531.87 127.50L510.09 127.50ZM601.28 129.04Q589.07 129.04 579.34 123.87Q569.60 118.70 564.04 109.57Q558.49 100.44 558.49 89L558.49 89Q558.49 77.56 564.04 68.43Q569.60 59.30 579.34 54.13Q589.07 48.96 601.28 48.96L601.28 48.96Q613.49 48.96 623.23 54.13Q632.96 59.30 638.51 68.43Q644.07 77.56 644.07 89L644.07 89Q644.07 100.44 638.51 109.57Q632.96 118.70 623.23 123.87Q613.49 129.04 601.28 129.04L601.28 129.04ZM601.28 111Q607.11 111 611.84 108.25Q616.57 105.50 619.32 100.50Q622.07 95.49 622.07 89L622.07 89Q622.07 82.51 619.32 77.50Q616.57 72.50 611.84 69.75Q607.11 67 601.28 67L601.28 67Q595.45 67 590.72 69.75Q585.99 72.50 583.24 77.50Q580.49 82.51 580.49 89L580.49 89Q580.49 95.49 583.24 100.50Q585.99 105.50 590.72 108.25Q595.45 111 601.28 111L601.28 111ZM694.34 129.04Q682.13 129.04 672.39 123.87Q662.66 118.70 657.10 109.57Q651.55 100.44 651.55 89L651.55 89Q651.55 77.56 657.10 68.43Q662.66 59.30 672.39 54.13Q682.13 48.96 694.34 48.96L694.34 48.96Q706.55 48.96 716.28 54.13Q726.02 59.30 731.57 68.43Q737.13 77.56 737.13 89L737.13 89Q737.13 100.44 731.57 109.57Q726.02 118.70 716.28 123.87Q706.55 129.04 694.34 129.04L694.34 129.04ZM694.34 111Q700.17 111 704.90 108.25Q709.63 105.50 712.38 100.50Q715.13 95.49 715.13 89L715.13 89Q715.13 82.51 712.38 77.50Q709.63 72.50 704.90 69.75Q700.17 67 694.34 67L694.34 67Q688.51 67 683.78 69.75Q679.05 72.50 676.30 77.50Q673.55 82.51 673.55 89L673.55 89Q673.55 95.49 676.30 100.50Q679.05 105.50 683.78 108.25Q688.51 111 694.34 111L694.34 111ZM748.57 127.50L748.57 50.50L770.35 50.50L770.35 110.23L807.09 110.23L807.09 127.50L748.57 127.50ZM842.51 129.04Q833.16 129.04 824.36 126.73Q815.56 124.42 810.06 120.57L810.06 120.57L817.21 104.51Q822.38 107.92 829.20 110.01Q836.02 112.10 842.62 112.10L842.62 112.10Q855.16 112.10 855.16 105.83L855.16 105.83Q855.16 102.53 851.58 100.94Q848.01 99.34 840.09 97.58L840.09 97.58Q831.40 95.71 825.57 93.56Q819.74 91.42 815.56 86.69Q811.38 81.96 811.38 73.93L811.38 73.93Q811.38 66.89 815.23 61.22Q819.08 55.56 826.72 52.26Q834.37 48.96 845.48 48.96L845.48 48.96Q853.07 48.96 860.44 50.67Q867.81 52.37 873.42 55.67L873.42 55.67L866.71 71.84Q855.71 65.90 845.37 65.90L845.37 65.90Q838.88 65.90 835.91 67.83Q832.94 69.75 832.94 72.83L832.94 72.83Q832.94 75.91 836.46 77.45Q839.98 78.99 847.79 80.64L847.79 80.64Q856.59 82.51 862.36 84.66Q868.14 86.80 872.37 91.47Q876.61 96.15 876.61 104.18L876.61 104.18Q876.61 111.11 872.76 116.72Q868.91 122.33 861.21 125.69Q853.51 129.04 842.51 129.04L842.51 129.04Z"/></svg>