<?xml version="1.0" standalone="no"?>
<svg version="1.1" xmlns="http://www.w3.org/2000/svg" xmlns:xlink="http://www.w3.org/1999/xlink" x="0px" y="0px" width="3086px" height="430px" viewBox="0 0 3086 430" enable-background="new 0 0 3086 430" xml:space="preserve"><polygon fill="#FFFFFF" points="2802,208 2118,208 2086,158 2054,208 30,208 30,30 2802,30"/><path xmlns="http://www.w3.org/2000/svg" fill="#141412" font-weight="bold" d="M112.34 144.35L152.82 144.35L152.82 161.62L83.85 161.62L83.85 147.98L122.68 101.89L84.84 101.89L84.84 84.62L151.17 84.62L151.17 98.26L112.34 144.35ZM183.95 144.79L224.21 144.79L224.21 161.62L162.39 161.62L162.39 84.62L222.78 84.62L222.78 101.45L183.95 101.45L183.95 114.43L218.16 114.43L218.16 130.71L183.95 130.71L183.95 144.79ZM236.31 161.62L236.31 84.62L258.09 84.62L258.09 161.62L236.31 161.62ZM289.99 161.62L289.99 101.89L266.34 101.89L266.34 84.62L335.31 84.62L335.31 101.89L311.77 101.89L311.77 161.62L289.99 161.62ZM402.63 121.47Q409.23 123.78 412.97 128.67Q416.71 133.57 416.71 140.50L416.71 140.50Q416.71 150.62 408.57 156.12Q400.43 161.62 385.03 161.62L385.03 161.62L343.45 161.62L343.45 84.62L382.83 84.62Q397.57 84.62 405.27 90.06Q412.97 95.51 412.97 104.75L412.97 104.75Q412.97 110.25 410.27 114.59Q407.58 118.94 402.63 121.47L402.63 121.47ZM379.97 100.35L365.01 100.35L365.01 115.20L379.97 115.20Q390.97 115.20 390.97 107.72L390.97 107.72Q390.97 100.35 379.97 100.35L379.97 100.35ZM383.27 145.89Q394.71 145.89 394.71 138.08L394.71 138.08Q394.71 130.27 383.27 130.27L383.27 130.27L365.01 130.27L365.01 145.89L383.27 145.89ZM449.60 144.79L489.86 144.79L489.86 161.62L428.04 161.62L428.04 84.62L488.43 84.62L488.43 101.45L449.60 101.45L449.60 114.43L483.81 114.43L483.81 130.71L449.60 130.71L449.60 144.79ZM549.59 161.62L535.62 141.16L523.74 141.16L523.74 161.62L501.96 161.62L501.96 84.62L537.16 84.62Q547.61 84.62 555.31 88.08Q563.01 91.55 567.19 97.98Q571.37 104.42 571.37 113.11L571.37 113.11Q571.37 121.47 567.47 127.68Q563.56 133.90 556.30 137.42L556.30 137.42L572.91 161.62L549.59 161.62ZM549.37 113.11Q549.37 107.72 545.96 104.75Q542.55 101.78 535.84 101.78L535.84 101.78L523.74 101.78L523.74 124.33L535.84 124.33Q542.55 124.33 545.96 121.41Q549.37 118.50 549.37 113.11L549.37 113.11ZM604.92 144.79L645.18 144.79L645.18 161.62L583.36 161.62L583.36 84.62L643.75 84.62L643.75 101.45L604.92 101.45L604.92 114.43L639.13 114.43L639.13 130.71L604.92 130.71L604.92 144.79ZM695.56 163.16Q683.46 163.16 673.84 158.04Q664.21 152.93 658.71 143.80Q653.21 134.67 653.21 123.12L653.21 123.12Q653.21 111.57 658.71 102.44Q664.21 93.31 673.84 88.19Q683.46 83.08 695.56 83.08L695.56 83.08Q706.12 83.08 714.59 86.82Q723.06 90.56 728.67 97.60L728.67 97.60L714.81 110.14Q707.33 101.12 696.66 101.12L696.66 101.12Q690.39 101.12 685.50 103.87Q680.60 106.62 677.90 111.62Q675.21 116.63 675.21 123.12L675.21 123.12Q675.21 129.61 677.90 134.61Q680.60 139.62 685.50 142.37Q690.39 145.12 696.66 145.12L696.66 145.12Q707.33 145.12 714.81 136.10L714.81 136.10L728.67 148.64Q723.06 155.68 714.59 159.42Q706.12 163.16 695.56 163.16L695.56 163.16ZM789.83 84.62L811.61 84.62L811.61 161.62L789.83 161.62L789.83 131.59L760.13 131.59L760.13 161.62L738.35 161.62L738.35 84.62L760.13 84.62L760.13 113.55L789.83 113.55L789.83 84.62ZM878.93 84.62L900.27 84.62L900.27 161.62L882.34 161.62L848.35 120.59L848.35 161.62L827.01 161.62L827.01 84.62L844.94 84.62L878.93 125.65L878.93 84.62ZM951.20 163.16Q934.04 163.16 924.52 153.81Q915.01 144.46 915.01 127.30L915.01 127.30L915.01 84.62L936.79 84.62L936.79 126.64Q936.79 145.12 951.42 145.12L951.42 145.12Q965.94 145.12 965.94 126.64L965.94 126.64L965.94 84.62L987.39 84.62L987.39 127.30Q987.39 144.46 977.88 153.81Q968.36 163.16 951.20 163.16L951.20 163.16ZM1054.05 84.62L1075.39 84.62L1075.39 161.62L1057.46 161.62L1023.47 120.59L1023.47 161.62L1002.13 161.62L1002.13 84.62L1020.06 84.62L1054.05 125.65L1054.05 84.62ZM1142.38 142.59L1142.38 121.47L1161.63 121.47L1161.63 153.37Q1155.03 158.10 1146.45 160.63Q1137.87 163.16 1129.29 163.16L1129.29 163.16Q1117.19 163.16 1107.51 158.04Q1097.83 152.93 1092.33 143.80Q1086.83 134.67 1086.83 123.12L1086.83 123.12Q1086.83 111.57 1092.33 102.44Q1097.83 93.31 1107.62 88.19Q1117.41 83.08 1129.73 83.08L1129.73 83.08Q1140.51 83.08 1149.09 86.71Q1157.67 90.34 1163.39 97.16L1163.39 97.16L1149.53 109.70Q1141.72 101.12 1130.83 101.12L1130.83 101.12Q1120.93 101.12 1114.88 107.11Q1108.83 113.11 1108.83 123.12L1108.83 123.12Q1108.83 129.50 1111.58 134.50Q1114.33 139.51 1119.28 142.31Q1124.23 145.12 1130.61 145.12L1130.61 145.12Q1136.88 145.12 1142.38 142.59L1142.38 142.59ZM1265.14 161.62L1259.09 146.66L1226.53 146.66L1220.48 161.62L1198.26 161.62L1232.25 84.62L1253.70 84.62L1287.80 161.62L1265.14 161.62ZM1232.91 130.60L1252.71 130.60L1242.81 105.96L1232.91 130.60ZM1327.84 163.16Q1310.68 163.16 1301.17 153.81Q1291.65 144.46 1291.65 127.30L1291.65 127.30L1291.65 84.62L1313.43 84.62L1313.43 126.64Q1313.43 145.12 1328.06 145.12L1328.06 145.12Q1342.58 145.12 1342.58 126.64L1342.58 126.64L1342.58 84.62L1364.03 84.62L1364.03 127.30Q1364.03 144.46 1354.52 153.81Q1345.00 163.16 1327.84 163.16L1327.84 163.16ZM1393.95 161.62L1393.95 101.89L1370.30 101.89L1370.30 84.62L1439.27 84.62L1439.27 101.89L1415.73 101.89L1415.73 161.62L1393.95 161.62ZM1485.14 163.16Q1472.93 163.16 1463.20 157.99Q1453.46 152.82 1447.91 143.69Q1442.35 134.56 1442.35 123.12L1442.35 123.12Q1442.35 111.68 1447.91 102.55Q1453.46 93.42 1463.20 88.25Q1472.93 83.08 1485.14 83.08L1485.14 83.08Q1497.35 83.08 1507.09 88.25Q1516.82 93.42 1522.38 102.55Q1527.93 111.68 1527.93 123.12L1527.93 123.12Q1527.93 134.56 1522.38 143.69Q1516.82 152.82 1507.09 157.99Q1497.35 163.16 1485.14 163.16L1485.14 163.16ZM1485.14 145.12Q1490.97 145.12 1495.70 142.37Q1500.43 139.62 1503.18 134.61Q1505.93 129.61 1505.93 123.12L1505.93 123.12Q1505.93 116.63 1503.18 111.62Q1500.43 106.62 1495.70 103.87Q1490.97 101.12 1485.14 101.12L1485.14 101.12Q1479.31 101.12 1474.58 103.87Q1469.85 106.62 1467.10 111.62Q1464.35 116.63 1464.35 123.12L1464.35 123.12Q1464.35 129.61 1467.10 134.61Q1469.85 139.62 1474.58 142.37Q1479.31 145.12 1485.14 145.12L1485.14 145.12ZM1628.91 161.62L1608.89 161.62L1608.67 120.81L1588.87 154.03L1579.19 154.03L1559.50 121.91L1559.50 161.62L1539.37 161.62L1539.37 84.62L1557.30 84.62L1584.36 129.06L1610.76 84.62L1628.69 84.62L1628.91 161.62ZM1701.95 161.62L1695.90 146.66L1663.34 146.66L1657.29 161.62L1635.07 161.62L1669.06 84.62L1690.51 84.62L1724.61 161.62L1701.95 161.62ZM1669.72 130.60L1689.52 130.60L1679.62 105.96L1669.72 130.60ZM1743.31 161.62L1743.31 101.89L1719.66 101.89L1719.66 84.62L1788.63 84.62L1788.63 101.89L1765.09 101.89L1765.09 161.62L1743.31 161.62ZM1796.77 161.62L1796.77 84.62L1818.55 84.62L1818.55 161.62L1796.77 161.62ZM1861.12 163.16Q1851.77 163.16 1842.97 160.85Q1834.17 158.54 1828.67 154.69L1828.67 154.69L1835.82 138.63Q1840.99 142.04 1847.81 144.13Q1854.63 146.22 1861.23 146.22L1861.23 146.22Q1873.77 146.22 1873.77 139.95L1873.77 139.95Q1873.77 136.65 1870.20 135.05Q1866.62 133.46 1858.70 131.70L1858.70 131.70Q1850.01 129.83 1844.18 127.68Q1838.35 125.54 1834.17 120.81Q1829.99 116.08 1829.99 108.05L1829.99 108.05Q1829.99 101.01 1833.84 95.34Q1837.69 89.68 1845.34 86.38Q1852.98 83.08 1864.09 83.08L1864.09 83.08Q1871.68 83.08 1879.05 84.78Q1886.42 86.49 1892.03 89.79L1892.03 89.79L1885.32 105.96Q1874.32 100.02 1863.98 100.02L1863.98 100.02Q1857.49 100.02 1854.52 101.94Q1851.55 103.87 1851.55 106.95L1851.55 106.95Q1851.55 110.03 1855.07 111.57Q1858.59 113.11 1866.40 114.76L1866.40 114.76Q1875.20 116.63 1880.98 118.77Q1886.75 120.92 1890.99 125.59Q1895.22 130.27 1895.22 138.30L1895.22 138.30Q1895.22 145.23 1891.37 150.84Q1887.52 156.45 1879.82 159.80Q1872.12 163.16 1861.12 163.16L1861.12 163.16ZM1943.62 163.16Q1931.52 163.16 1921.90 158.04Q1912.27 152.93 1906.77 143.80Q1901.27 134.67 1901.27 123.12L1901.27 123.12Q1901.27 111.57 1906.77 102.44Q1912.27 93.31 1921.90 88.19Q1931.52 83.08 1943.62 83.08L1943.62 83.08Q1954.18 83.08 1962.65 86.82Q1971.12 90.56 1976.73 97.60L1976.73 97.60L1962.87 110.14Q1955.39 101.12 1944.72 101.12L1944.72 101.12Q1938.45 101.12 1933.56 103.87Q1928.66 106.62 1925.97 111.62Q1923.27 116.63 1923.27 123.12L1923.27 123.12Q1923.27 129.61 1925.97 134.61Q1928.66 139.62 1933.56 142.37Q1938.45 145.12 1944.72 145.12L1944.72 145.12Q1955.39 145.12 1962.87 136.10L1962.87 136.10L1976.73 148.64Q1971.12 155.68 1962.65 159.42Q1954.18 163.16 1943.62 163.16L1943.62 163.16ZM2037.89 84.62L2059.67 84.62L2059.67 161.62L2037.89 161.62L2037.89 131.59L2008.19 131.59L2008.19 161.62L1986.41 161.62L1986.41 84.62L2008.19 84.62L2008.19 113.55L2037.89 113.55L2037.89 84.62ZM2128.64 144.79L2168.90 144.79L2168.90 161.62L2107.08 161.62L2107.08 84.62L2167.47 84.62L2167.47 101.45L2128.64 101.45L2128.64 114.43L2162.85 114.43L2162.85 130.71L2128.64 130.71L2128.64 144.79ZM2228.63 161.62L2214.66 141.16L2202.78 141.16L2202.78 161.62L2181.00 161.62L2181.00 84.62L2216.20 84.62Q2226.65 84.62 2234.35 88.08Q2242.05 91.55 2246.23 97.98Q2250.41 104.42 2250.41 113.11L2250.41 113.11Q2250.41 121.47 2246.51 127.68Q2242.60 133.90 2235.34 137.42L2235.34 137.42L2251.95 161.62L2228.63 161.62ZM2228.41 113.11Q2228.41 107.72 2225.00 104.75Q2221.59 101.78 2214.88 101.78L2214.88 101.78L2202.78 101.78L2202.78 124.33L2214.88 124.33Q2221.59 124.33 2225.00 121.41Q2228.41 118.50 2228.41 113.11L2228.41 113.11ZM2289.46 163.16Q2280.11 163.16 2271.31 160.85Q2262.51 158.54 2257.01 154.69L2257.01 154.69L2264.16 138.63Q2269.33 142.04 2276.15 144.13Q2282.97 146.22 2289.57 146.22L2289.57 146.22Q2302.11 146.22 2302.11 139.95L2302.11 139.95Q2302.11 136.65 2298.54 135.05Q2294.96 133.46 2287.04 131.70L2287.04 131.70Q2278.35 129.83 2272.52 127.68Q2266.69 125.54 2262.51 120.81Q2258.33 116.08 2258.33 108.05L2258.33 108.05Q2258.33 101.01 2262.18 95.34Q2266.03 89.68 2273.68 86.38Q2281.32 83.08 2292.43 83.08L2292.43 83.08Q2300.02 83.08 2307.39 84.78Q2314.76 86.49 2320.37 89.79L2320.37 89.79L2313.66 105.96Q2302.66 100.02 2292.32 100.02L2292.32 100.02Q2285.83 100.02 2282.86 101.94Q2279.89 103.87 2279.89 106.95L2279.89 106.95Q2279.89 110.03 2283.41 111.57Q2286.93 113.11 2294.74 114.76L2294.74 114.76Q2303.54 116.63 2309.32 118.77Q2315.09 120.92 2319.33 125.59Q2323.56 130.27 2323.56 138.30L2323.56 138.30Q2323.56 145.23 2319.71 150.84Q2315.86 156.45 2308.16 159.80Q2300.46 163.16 2289.46 163.16L2289.46 163.16ZM2348.86 161.62L2348.86 101.89L2325.21 101.89L2325.21 84.62L2394.18 84.62L2394.18 101.89L2370.64 101.89L2370.64 161.62L2348.86 161.62ZM2423.88 144.79L2464.14 144.79L2464.14 161.62L2402.32 161.62L2402.32 84.62L2462.71 84.62L2462.71 101.45L2423.88 101.45L2423.88 114.43L2458.09 114.43L2458.09 130.71L2423.88 130.71L2423.88 144.79ZM2476.24 161.62L2476.24 84.62L2498.02 84.62L2498.02 144.35L2534.76 144.35L2534.76 161.62L2476.24 161.62ZM2543.34 161.62L2543.34 84.62L2565.12 84.62L2565.12 144.35L2601.86 144.35L2601.86 161.62L2543.34 161.62ZM2632.00 144.79L2672.26 144.79L2672.26 161.62L2610.44 161.62L2610.44 84.62L2670.83 84.62L2670.83 101.45L2632.00 101.45L2632.00 114.43L2666.21 114.43L2666.21 130.71L2632.00 130.71L2632.00 144.79ZM2736.28 84.62L2757.62 84.62L2757.62 161.62L2739.69 161.62L2705.70 120.59L2705.70 161.62L2684.36 161.62L2684.36 84.62L2702.29 84.62L2736.28 125.65L2736.28 84.62Z"/><polygon fill="#FFFFFF" points="3056,400 1966,400 1966,222 2062,222 2086,185 2110,222 3056,222"/><g><path fill="#323394" d="M2300.931,295.371c-0.181-0.641-0.267-1.301-0.327-1.85l12.602,12.581 C2306.397,303.64,2302.158,303.975,2300.931,295.371"/><path fill="#c41333" d="M2381.722,337.954c-8.831,2.554-17.685,4.158-26.022,4.703l31.227,31.223l11.095-41.367 C2393.111,334.417,2387.689,336.222,2381.722,337.954"/><path fill="#c41333" d="M2409.51,286.399c-11.379,7.401-25.311,13.781-38.275,17.489c-17.806,5.161-35.959,6.776-49.823,4.384 l-21.157-21.185l117.507-31.565L2409.51,286.399"/><path fill="#323394" d="M2426.756,308.589c-8.896,10.981-23.162,18.734-46.193,25.432c-23.495,6.697-46.936,6.516-59.736-0.58 c-4.496-2.516-7.312-5.601-8.392-9.293l-6.739-16.765c0.268,0.129,0.535,0.267,0.766,0.5c13.803,7.585,39.672,7.634,65.947,0.128 c21.021-6.073,43.057-18.351,54.348-30.131V308.589"/><path fill="#323394" d="M2386.924,259.621l-82.082,21.879c8.453-12.008,28.283-23.847,51.221-30.49 c6.447-1.871,20.849-4.191,30.861-3.807V259.621"/></g><path xmlns="http://www.w3.org/2000/svg" fill="#141412" font-weight="bold" d="M2054.09 351.16Q2041.99 351.16 2032.37 346.04Q2022.74 340.93 2017.24 331.80Q2011.74 322.67 2011.74 311.12L2011.74 311.12Q2011.74 299.57 2017.24 290.44Q2022.74 281.31 2032.37 276.19Q2041.99 271.08 2054.09 271.08L2054.09 271.08Q2064.65 271.08 2073.12 274.82Q2081.59 278.56 2087.20 285.60L2087.20 285.60L2073.34 298.14Q2065.86 289.12 2055.19 289.12L2055.19 289.12Q2048.92 289.12 2044.03 291.87Q2039.13 294.62 2036.43 299.62Q2033.74 304.63 2033.74 311.12L2033.74 311.12Q2033.74 317.61 2036.43 322.61Q2039.13 327.62 2044.03 330.37Q2048.92 333.12 2055.19 333.12L2055.19 333.12Q2065.86 333.12 2073.34 324.10L2073.34 324.10L2087.20 336.64Q2081.59 343.68 2073.12 347.42Q2064.65 351.16 2054.09 351.16L2054.09 351.16ZM2118.44 332.79L2158.70 332.79L2158.70 349.62L2096.88 349.62L2096.88 272.62L2157.27 272.62L2157.27 289.45L2118.44 289.45L2118.44 302.43L2152.65 302.43L2152.65 318.71L2118.44 318.71L2118.44 332.79ZM2226.24 272.62L2247.80 272.62L2214.80 349.62L2193.35 349.62L2160.46 272.62L2184 272.62L2204.90 322.78L2226.24 272.62ZM2252.31 349.62L2252.31 272.62L2274.09 272.62L2274.09 349.62L2252.31 349.62Z"/><path xmlns="http://www.w3.org/2000/svg" fill="#141412" font-weight="bold" d="M2486.76 351.16Q2477.41 351.16 2468.61 348.85Q2459.81 346.54 2454.31 342.69L2454.31 342.69L2461.46 326.63Q2466.63 330.04 2473.45 332.13Q2480.27 334.22 2486.87 334.22L2486.87 334.22Q2499.41 334.22 2499.41 327.95L2499.41 327.95Q2499.41 324.65 2495.84 323.05Q2492.26 321.46 2484.34 319.70L2484.34 319.70Q2475.65 317.83 2469.82 315.68Q2463.99 313.54 2459.81 308.81Q2455.63 304.08 2455.63 296.05L2455.63 296.05Q2455.63 289.01 2459.48 283.34Q2463.33 277.68 2470.97 274.38Q2478.62 271.08 2489.73 271.08L2489.73 271.08Q2497.32 271.08 2504.69 272.78Q2512.06 274.49 2517.67 277.79L2517.67 277.79L2510.96 293.96Q2499.96 288.02 2489.62 288.02L2489.62 288.02Q2483.13 288.02 2480.16 289.94Q2477.19 291.87 2477.19 294.95L2477.19 294.95Q2477.19 298.03 2480.71 299.57Q2484.23 301.11 2492.04 302.76L2492.04 302.76Q2500.84 304.63 2506.61 306.77Q2512.39 308.92 2516.63 313.59Q2520.86 318.27 2520.86 326.30L2520.86 326.30Q2520.86 333.23 2517.01 338.84Q2513.16 344.45 2505.46 347.80Q2497.76 351.16 2486.76 351.16L2486.76 351.16ZM2569.26 351.16Q2557.16 351.16 2547.53 346.04Q2537.91 340.93 2532.41 331.80Q2526.91 322.67 2526.91 311.12L2526.91 311.12Q2526.91 299.57 2532.41 290.44Q2537.91 281.31 2547.53 276.19Q2557.16 271.08 2569.26 271.08L2569.26 271.08Q2579.82 271.08 2588.29 274.82Q2596.76 278.56 2602.37 285.60L2602.37 285.60L2588.51 298.14Q2581.03 289.12 2570.36 289.12L2570.36 289.12Q2564.09 289.12 2559.20 291.87Q2554.30 294.62 2551.61 299.62Q2548.91 304.63 2548.91 311.12L2548.91 311.12Q2548.91 317.61 2551.61 322.61Q2554.30 327.62 2559.20 330.37Q2564.09 333.12 2570.36 333.12L2570.36 333.12Q2581.03 333.12 2588.51 324.10L2588.51 324.10L2602.37 336.64Q2596.76 343.68 2588.29 347.42Q2579.82 351.16 2569.26 351.16L2569.26 351.16ZM2663.53 272.62L2685.31 272.62L2685.31 349.62L2663.53 349.62L2663.53 319.59L2633.83 319.59L2633.83 349.62L2612.05 349.62L2612.05 272.62L2633.83 272.62L2633.83 301.55L2663.53 301.55L2663.53 272.62ZM2800.48 272.62L2821.27 272.62L2796.30 349.62L2772.98 349.62L2758.24 302.76L2742.84 349.62L2719.52 349.62L2694.55 272.62L2716.99 272.62L2732.50 321.79L2748.78 272.62L2768.80 272.62L2784.31 322.23L2800.48 272.62ZM2850.64 332.79L2890.90 332.79L2890.90 349.62L2829.08 349.62L2829.08 272.62L2889.47 272.62L2889.47 289.45L2850.64 289.45L2850.64 302.43L2884.85 302.43L2884.85 318.71L2850.64 318.71L2850.64 332.79ZM2903.00 349.62L2903.00 272.62L2924.78 272.62L2924.78 349.62L2903.00 349.62ZM2964.93 332.35L3005.41 332.35L3005.41 349.62L2936.44 349.62L2936.44 335.98L2975.27 289.89L2937.43 289.89L2937.43 272.62L3003.76 272.62L3003.76 286.26L2964.93 332.35Z"/></svg>